<?xml version="1.0" standalone="no"?>
<!DOCTYPE svg PUBLIC "-//W3C//DTD SVG 20010904//EN"
 "http://www.w3.org/TR/2001/REC-SVG-20010904/DTD/svg10.dtd">
<svg version="1.0" xmlns="http://www.w3.org/2000/svg"
 width="500.000000pt" height="500.000000pt" viewBox="0 0 500.000000 500.000000"
 preserveAspectRatio="xMidYMid meet">

<g transform="translate(0.000000,500.000000) scale(0.100000,-0.100000)"
fill="#000000" stroke="none">
<path d="M0 2500 l0 -2500 2500 0 2500 0 0 2500 0 2500 -2500 0 -2500 0 0
-2500z m2805 1976 c710 -114 1303 -609 1542 -1286 73 -207 113 -447 113 -675
0 -130 -6 -166 -24 -159 -8 3 -10 35 -8 110 8 214 -28 462 -97 672 -69 209
-155 375 -287 552 -433 583 -1154 872 -1869 750 -409 -69 -765 -258 -1061
-562 -158 -162 -256 -301 -353 -502 -137 -282 -196 -551 -189 -858 2 -119 0
-159 -9 -163 -22 -8 -26 40 -20 238 6 255 38 419 124 647 142 377 412 710 763
941 234 155 532 266 795 298 50 6 101 13 115 15 51 9 378 -3 465 -18z m-328
-242 c2 -6 -10 -8 -32 -6 -48 6 -47 -20 3 -45 42 -20 53 -50 26 -70 -24 -18
-69 -16 -84 2 -12 14 -8 15 27 9 32 -5 41 -3 46 10 5 12 -4 21 -31 34 -36 17
-49 39 -38 68 7 17 77 16 83 -2z m250 -69 c13 -38 23 -73 23 -77 0 -17 -17 -7
-28 17 -14 31 -67 35 -88 8 -7 -10 -15 -15 -19 -11 -9 9 67 138 79 135 5 -2
20 -34 33 -72z m-662 25 c3 -5 -13 -14 -35 -20 -42 -11 -45 -16 -31 -39 6 -9
19 -11 42 -7 32 7 33 6 15 -9 -11 -8 -26 -15 -33 -15 -14 0 -17 -18 -5 -37 6
-10 17 -10 42 -3 42 12 40 12 40 1 0 -8 -90 -36 -95 -29 -10 15 -35 132 -28
138 4 5 24 13 43 18 19 6 36 11 37 11 1 1 4 -3 8 -9z m881 -27 c37 -95 35 -93
52 -40 9 26 19 47 24 47 11 0 10 -12 -9 -80 -17 -64 -28 -74 -42 -37 -5 12
-17 40 -26 62 l-18 40 -14 -47 c-8 -27 -18 -48 -24 -48 -12 0 -12 1 8 76 9 35
21 64 26 64 4 0 15 -17 23 -37z m-1104 -118 c17 -36 28 -68 25 -71 -3 -3 -29
7 -59 23 -82 43 -76 47 -44 -29 10 -23 12 -38 6 -38 -13 0 -71 120 -64 132 3
5 30 -6 60 -23 31 -17 57 -29 60 -26 3 3 -4 23 -15 45 -17 34 -19 52 -4 52 2
0 17 -29 35 -65z m1392 45 c25 -10 46 -24 46 -30 0 -7 -6 -8 -19 0 -29 15 -29
15 -56 -45 -13 -30 -29 -55 -34 -55 -15 0 -15 0 14 62 l25 53 -23 17 c-29 23
-9 22 47 -2z m-1604 -235 c0 -3 -4 -5 -9 -5 -14 0 -81 112 -74 123 5 8 83
-102 83 -118z m1854 94 c54 -42 23 -129 -46 -129 -54 1 -94 47 -82 95 13 54
80 72 128 34z m-2079 -158 l39 -50 28 21 c16 11 32 18 35 15 7 -7 -48 -56 -63
-57 -11 0 -94 97 -94 111 0 20 17 7 55 -40z m2295 -11 c20 -20 26 -40 12 -40
-4 0 -13 9 -20 20 -14 23 -42 27 -42 6 0 -8 5 -27 10 -42 6 -15 8 -35 5 -45
-13 -40 -95 -11 -95 33 0 24 16 23 23 -2 6 -24 34 -37 49 -22 6 6 5 20 -6 41
-30 58 19 96 64 51z m-833 -185 c25 -48 57 -79 98 -96 l30 -12 -31 -8 c-67
-19 -131 -123 -135 -220 0 -13 -8 6 -18 42 -22 87 -55 134 -111 162 l-46 22
43 27 c59 38 98 95 113 169 l14 63 11 -54 c6 -30 21 -73 32 -95z m-1527 23 c0
-5 -9 -6 -21 -3 -32 11 -71 -31 -64 -67 11 -47 -5 -31 -36 37 -43 96 -42 98
46 68 41 -13 75 -29 75 -35z m958 -79 c-23 -31 -23 -32 -26 -427 -2 -218 0
-411 3 -428 3 -18 17 -44 32 -58 l26 -26 -124 0 c-93 1 -119 3 -106 11 34 20
47 72 47 191 l-1 113 -37 55 c-64 94 -200 168 -339 186 l-51 6 -8 -47 c-3 -26
-4 -152 0 -279 8 -258 -3 -352 -49 -453 -43 -94 -122 -175 -192 -197 -31 -10
-29 8 2 22 45 21 112 91 133 140 48 111 50 198 11 427 -22 127 -28 259 -15
338 l7 48 -38 -7 c-52 -10 -117 -38 -159 -70 -39 -30 -60 -25 -23 6 40 33 137
79 185 86 29 4 47 12 51 23 60 188 176 304 353 352 46 13 104 18 203 18 l138
1 -23 -31z m-1145 -56 c3 -5 -17 -42 -45 -83 -171 -257 -272 -601 -267 -905 1
-66 -2 -100 -10 -103 -20 -7 -14 259 9 395 36 210 125 441 242 620 51 80 62
91 71 76z m2753 -60 c110 -166 202 -395 244 -608 26 -129 40 -425 21 -425 -7
0 -11 21 -11 58 -1 338 -91 663 -258 929 -29 46 -52 87 -52 93 0 24 21 6 56
-47z m-692 -529 c29 -10 65 -14 91 -12 l43 5 -5 -96 c-3 -53 -7 -97 -8 -99 -1
-1 -14 22 -29 51 -31 65 -97 133 -144 148 -80 26 -187 -12 -214 -76 -18 -41
-15 -113 6 -153 24 -47 104 -124 242 -235 139 -111 209 -183 255 -264 29 -50
34 -69 37 -145 10 -201 -96 -363 -275 -418 -77 -24 -212 -27 -289 -6 -120 32
-222 116 -272 224 -22 48 -26 71 -27 152 0 79 4 104 23 145 50 109 160 181
289 191 l68 4 -52 -15 c-164 -46 -261 -189 -251 -370 5 -104 40 -177 113 -242
128 -112 367 -110 478 5 72 75 106 193 87 304 -16 100 -79 191 -218 315 -262
235 -316 324 -278 455 17 59 60 108 116 132 46 20 155 20 214 0z m-2610 -794
c74 -273 219 -558 399 -779 297 -364 703 -600 1182 -687 117 -22 389 -29 515
-15 352 41 676 169 960 380 95 70 254 224 333 321 133 163 271 403 345 598 34
89 86 283 98 367 5 28 9 43 11 34 2 -9 -10 -85 -26 -168 -108 -534 -437 -1003
-901 -1285 -294 -180 -601 -272 -941 -283 -276 -9 -459 16 -704 98 -293 98
-534 248 -761 474 -287 286 -472 639 -544 1039 -24 133 -24 174 0 56 9 -47 25
-114 34 -150z m286 181 c0 -6 -20 -24 -45 -42 -25 -18 -42 -35 -39 -38 3 -3
28 -8 56 -11 28 -3 53 -10 55 -15 4 -12 -112 -59 -130 -52 -6 3 7 13 30 22 50
21 47 35 -7 35 -54 0 -58 15 -10 46 22 15 40 30 40 34 0 4 -19 4 -42 -1 -24
-4 -47 -4 -52 1 -8 8 4 11 84 23 47 8 60 7 60 -2z m3150 -276 c0 -4 -7 -20
-16 -37 -15 -30 -15 -32 2 -45 16 -12 20 -11 31 3 7 9 14 22 16 28 2 6 7 8 11
4 4 -3 2 -16 -4 -28 -10 -18 -9 -24 1 -31 24 -15 37 -10 48 21 5 17 15 30 21
30 10 0 -13 -67 -29 -83 -10 -10 -130 45 -131 60 0 18 32 83 42 83 4 0 8 -2 8
-5z m-3046 -23 c6 -11 -100 -129 -109 -120 -3 3 -1 15 6 26 19 30 -5 82 -37
82 -13 0 -24 5 -24 10 0 12 156 14 164 2z m96 -180 c0 -5 -11 -36 -25 -71
l-24 -62 44 25 c47 28 55 31 55 17 0 -10 -105 -81 -120 -81 -13 0 -14 -4 15
70 14 35 24 65 22 66 -2 2 -20 -8 -40 -21 -36 -25 -57 -31 -57 -17 0 8 110 82
123 82 4 0 7 -4 7 -8z m2874 -28 c9 -8 16 -20 16 -25 0 -5 13 -9 29 -9 17 0
33 -4 36 -10 4 -6 -10 -10 -34 -10 -55 0 -70 -26 -33 -57 18 -15 22 -22 12
-23 -17 0 -120 67 -120 78 0 10 31 55 44 64 17 12 33 9 50 -8z m-2725 -186 c0
-17 -108 -102 -117 -93 -7 7 96 104 111 105 4 0 7 -6 6 -12z m2594 -23 c58
-53 44 -125 -25 -125 -30 0 -120 71 -99 78 6 2 27 -10 47 -27 37 -33 62 -39
82 -19 21 21 13 46 -30 87 -53 50 -29 56 25 6z m-2448 -128 c19 -16 26 -30 23
-47 l-3 -25 -15 29 c-23 44 -45 54 -78 36 -21 -13 -27 -23 -27 -50 0 -30 5
-37 32 -50 32 -15 43 -30 23 -30 -20 0 -68 29 -74 45 -20 54 14 115 65 115 15
0 40 -10 54 -23z m2245 -37 c0 -5 -8 -10 -17 -10 -44 0 -69 -63 -37 -94 26
-27 94 -13 94 19 0 7 5 17 10 20 6 3 10 -3 10 -14 0 -33 -35 -61 -75 -61 -68
0 -101 77 -53 127 21 23 68 32 68 13z m-2114 -133 c-28 -37 -33 -66 -14 -85
23 -23 48 -12 80 33 33 46 61 53 32 7 -49 -78 -96 -94 -133 -46 -12 15 -21 29
-21 33 0 3 14 30 31 60 21 36 34 50 41 43 7 -7 2 -21 -16 -45z m1929 -62 c38
-60 40 -65 25 -65 -10 0 -80 98 -80 112 0 22 23 2 55 -47z m-1662 -41 c52 -27
60 -53 27 -81 -12 -11 -20 -30 -20 -50 0 -45 -16 -42 -25 4 -6 34 -19 52 -36
53 -3 0 -11 -12 -17 -26 -7 -14 -16 -22 -22 -19 -8 5 47 135 58 135 1 0 17 -7
35 -16z m1500 -14 c53 -42 39 -107 -30 -136 -19 -9 -36 -14 -38 -12 -6 8 -55
121 -55 128 0 8 67 39 86 39 6 1 23 -8 37 -19z m-247 -79 c-3 -5 -20 -12 -37
-16 -25 -6 -29 -10 -23 -28 9 -29 8 -29 38 -18 16 7 26 7 26 1 0 -5 -11 -12
-25 -16 -26 -6 -31 -19 -17 -41 6 -10 17 -10 42 -3 42 12 40 12 40 2 0 -8 -65
-32 -87 -32 -12 0 -48 128 -38 138 8 8 78 30 84 26 1 -1 0 -7 -3 -13z m-1007
-2 c35 -12 44 -35 9 -23 -39 13 -62 10 -66 -8 -2 -12 5 -21 22 -28 34 -13 33
-24 -1 -16 -17 5 -29 3 -34 -6 -16 -25 -9 -36 26 -42 19 -4 35 -11 35 -16 0
-12 -2 -12 -56 1 -32 8 -44 16 -40 26 3 7 13 38 22 68 17 60 25 64 83 44z
m791 -63 c22 -27 8 -60 -30 -73 -29 -9 -35 -15 -32 -37 3 -29 -14 -36 -22 -8
-11 37 -18 111 -11 121 9 16 81 13 95 -3z m-414 -6 c22 0 33 -4 29 -10 -4 -6
-23 -9 -43 -8 -32 3 -37 0 -40 -19 -3 -20 1 -23 27 -23 17 0 31 -4 31 -10 0
-5 -13 -10 -30 -10 -25 0 -30 -4 -30 -25 0 -22 4 -25 35 -25 19 0 35 -4 35
-10 0 -11 -24 -13 -66 -4 -29 5 -29 6 -26 67 4 78 8 91 28 83 9 -3 31 -6 50
-6z"/>
<path d="M2672 4176 c-12 -27 -7 -36 20 -36 20 0 21 4 12 38 -8 28 -18 28 -32
-2z"/>
<path d="M3392 3938 c-20 -20 -15 -76 7 -88 43 -23 91 2 91 47 0 42 -68 71
-98 41z"/>
<path d="M1223 3620 c13 -35 18 -36 41 -11 16 18 16 19 -15 30 -18 6 -33 11
-35 11 -1 0 3 -13 9 -30z"/>
<path d="M1993 3531 c-61 -21 -109 -56 -157 -114 -39 -48 -92 -154 -102 -204
-6 -32 -5 -33 26 -33 50 0 150 -29 211 -61 51 -28 128 -95 164 -144 13 -18 14
11 15 255 0 313 -1 320 -68 320 -20 -1 -60 -9 -89 -19z"/>
<path d="M906 1948 c10 -33 12 -34 34 -10 27 28 25 32 -11 32 -27 0 -30 -3
-23 -22z"/>
<path d="M3906 1748 c-15 -21 -15 -24 1 -35 22 -17 28 -16 44 3 9 11 10 20 3
32 -16 25 -31 25 -48 0z"/>
<path d="M1745 1129 c-8 -23 9 -41 35 -36 20 3 26 37 8 48 -22 14 -36 10 -43
-12z"/>
<path d="M3208 1139 l-26 -10 20 -50 c23 -55 38 -60 73 -25 26 26 25 46 -3 79
-17 19 -25 20 -64 6z"/>
<path d="M2745 973 c9 -36 8 -35 39 -23 39 14 31 44 -13 48 -32 3 -33 2 -26
-25z"/>
</g>
</svg>
